<?xml version="1.0" encoding="UTF-8" standalone="no"?>
<!DOCTYPE svg PUBLIC "-//W3C//DTD SVG 1.1//EN" "http://www.w3.org/Graphics/SVG/1.1/DTD/svg11.dtd">
<svg width="100%" height="100%" viewBox="0 0 192 192" version="1.1" xmlns="http://www.w3.org/2000/svg" xmlns:xlink="http://www.w3.org/1999/xlink" xml:space="preserve" xmlns:serif="http://www.serif.com/" style="fill-rule:evenodd;clip-rule:evenodd;stroke-linejoin:round;stroke-miterlimit:2;">
    <rect x="0" y="0" width="191.565" height="191.565" style="fill:rgb(105,131,187);"/>
    <g transform="matrix(1,0,0,1,95.7823,13.6885)">
        <path d="M0,164.191C45.34,164.191 82.096,127.435 82.096,82.095C82.096,36.754 45.34,0 0,0C-45.34,0 -82.096,36.754 -82.096,82.095C-82.096,127.435 -45.34,164.191 0,164.191" style="fill:rgb(53,70,147);fill-rule:nonzero;"/>
    </g>
    <g transform="matrix(1,0,0,1,34.6264,98.3442)">
        <path d="M0,8.884L0,3.358L4.125,8.884L6.016,8.884L6.016,0L3.993,0L3.993,5.526L-0.119,0L-2.023,0L-2.023,8.884L0,8.884ZM14.749,8.593C15.335,8.294 15.78,7.859 16.084,7.291C16.388,6.722 16.541,6.033 16.541,5.222L16.541,0L14.399,0L14.399,5.222C14.399,5.839 14.242,6.313 13.929,6.643C13.616,6.974 13.178,7.139 12.614,7.139C12.032,7.139 11.587,6.974 11.279,6.643C10.97,6.313 10.816,5.839 10.816,5.222L10.816,0L8.661,0L8.661,5.222C8.661,6.447 9.005,7.39 9.692,8.051C10.38,8.712 11.353,9.043 12.614,9.043C13.451,9.043 14.163,8.893 14.749,8.593M21.275,8.884L21.275,1.784L22.927,1.784C23.324,1.784 23.626,1.881 23.833,2.075C24.04,2.269 24.144,2.542 24.144,2.895C24.144,3.265 24.04,3.547 23.833,3.741C23.626,3.935 23.324,4.032 22.927,4.032L19.715,4.032L19.715,5.804L23.112,5.804C23.765,5.804 24.329,5.689 24.805,5.46C25.281,5.231 25.649,4.9 25.909,4.468C26.169,4.036 26.299,3.512 26.299,2.895C26.299,1.952 26.023,1.234 25.472,0.74C24.921,0.246 24.135,0 23.112,0L19.186,0L19.186,8.884L21.275,8.884ZM26.563,8.884L24.157,5.275L22.134,5.685L24.144,8.884L26.563,8.884ZM37.79,8.699C38.336,8.47 38.757,8.144 39.053,7.721C39.348,7.297 39.495,6.795 39.495,6.213C39.495,5.658 39.39,5.209 39.178,4.865C38.967,4.521 38.693,4.252 38.358,4.058C38.023,3.865 37.66,3.721 37.268,3.629C36.875,3.536 36.503,3.459 36.151,3.397C35.93,3.362 35.721,3.325 35.523,3.285C35.324,3.245 35.15,3.197 35,3.139C34.85,3.082 34.734,3.003 34.65,2.902C34.566,2.8 34.524,2.675 34.524,2.525C34.524,2.252 34.65,2.042 34.901,1.897C35.152,1.751 35.507,1.679 35.965,1.679C36.424,1.679 36.823,1.749 37.162,1.89C37.501,2.031 37.825,2.203 38.134,2.406L39.337,0.951C38.411,0.211 37.288,-0.159 35.965,-0.159C35.234,-0.159 34.599,-0.047 34.062,0.178C33.524,0.403 33.11,0.72 32.819,1.13C32.528,1.54 32.383,2.022 32.383,2.578C32.383,3.124 32.484,3.563 32.687,3.893C32.889,4.224 33.156,4.484 33.486,4.673C33.817,4.863 34.176,5.004 34.564,5.096C34.952,5.189 35.318,5.266 35.661,5.328C35.89,5.372 36.109,5.416 36.316,5.46C36.523,5.504 36.704,5.559 36.858,5.625C37.012,5.691 37.135,5.777 37.228,5.883C37.321,5.989 37.367,6.121 37.367,6.279C37.367,6.57 37.232,6.797 36.964,6.96C36.695,7.124 36.318,7.205 35.833,7.205C35.339,7.205 34.901,7.117 34.518,6.941C34.134,6.764 33.775,6.557 33.44,6.319L32.224,7.773C32.726,8.197 33.279,8.514 33.883,8.725C34.487,8.937 35.137,9.043 35.833,9.043C36.591,9.043 37.243,8.928 37.79,8.699M43.714,8.884L43.714,2.221L42.96,2.221L45.71,6.2L46.993,6.2L49.743,2.221L48.976,2.221L48.976,8.884L50.999,8.884L50.999,0L49.108,0L46.358,3.979L43.595,0L41.691,0L41.691,8.884L43.714,8.884ZM55.151,8.884L57.624,2.3L60.109,8.884L62.33,8.884L58.708,0L56.553,0L52.93,8.884L55.151,8.884ZM59.898,5.367L55.376,5.367L55.376,7.086L59.898,7.086L59.898,5.367ZM66.351,8.884L66.351,1.784L68.003,1.784C68.4,1.784 68.702,1.881 68.909,2.075C69.116,2.269 69.22,2.542 69.22,2.895C69.22,3.265 69.116,3.547 68.909,3.741C68.702,3.935 68.4,4.032 68.003,4.032L64.791,4.032L64.791,5.804L68.188,5.804C68.841,5.804 69.405,5.689 69.881,5.46C70.357,5.231 70.725,4.9 70.985,4.468C71.244,4.036 71.375,3.512 71.375,2.895C71.375,1.952 71.099,1.234 70.548,0.74C69.997,0.246 69.211,0 68.188,0L64.262,0L64.262,8.884L66.351,8.884ZM71.639,8.884L69.233,5.275L67.21,5.685L69.22,8.884L71.639,8.884ZM77.709,8.884L77.709,1.837L80.379,1.837L80.379,0L72.91,0L72.91,1.837L75.567,1.837L75.567,8.884L77.709,8.884ZM89.04,8.884L89.04,7.099L84.664,7.099L84.664,5.248L87.612,5.248L87.612,3.53L84.664,3.53L84.664,1.784L88.882,1.784L88.882,0L82.509,0L82.509,8.884L89.04,8.884ZM93.457,8.884L93.457,1.784L95.11,1.784C95.506,1.784 95.808,1.881 96.015,2.075C96.222,2.269 96.326,2.542 96.326,2.895C96.326,3.265 96.222,3.547 96.015,3.741C95.808,3.935 95.506,4.032 95.11,4.032L91.897,4.032L91.897,5.804L95.295,5.804C95.947,5.804 96.511,5.689 96.987,5.46C97.463,5.231 97.831,4.9 98.091,4.468C98.351,4.036 98.481,3.512 98.481,2.895C98.481,1.952 98.205,1.234 97.655,0.74C97.104,0.246 96.317,0 95.295,0L91.368,0L91.368,8.884L93.457,8.884ZM98.745,8.884L96.339,5.275L94.316,5.685L96.326,8.884L98.745,8.884ZM102.554,8.739C102.757,8.536 102.858,8.245 102.858,7.866C102.858,7.496 102.757,7.209 102.554,7.007C102.351,6.804 102.065,6.703 101.695,6.703C101.325,6.703 101.036,6.804 100.829,7.007C100.622,7.209 100.518,7.496 100.518,7.866C100.518,8.245 100.622,8.536 100.829,8.739C101.036,8.941 101.325,9.043 101.695,9.043C102.065,9.043 102.351,8.941 102.554,8.739" style="fill:white;fill-rule:nonzero;"/>
    </g>
    <g transform="matrix(1,0,0,1,38.6126,82.238)">
        <path d="M0,9.228C0.586,8.928 1.031,8.494 1.335,7.926C1.639,7.357 1.791,6.668 1.791,5.857L1.791,0.634L-0.35,0.634L-0.35,5.857C-0.35,6.474 -0.507,6.947 -0.82,7.278C-1.133,7.608 -1.571,7.774 -2.135,7.774C-2.717,7.774 -3.162,7.608 -3.471,7.278C-3.779,6.947 -3.933,6.474 -3.933,5.857L-3.933,0.634L-6.088,0.634L-6.088,5.857C-6.088,7.082 -5.745,8.025 -5.057,8.686C-4.37,9.347 -3.396,9.678 -2.135,9.678C-1.298,9.678 -0.586,9.528 0,9.228M6.46,9.519L6.46,3.992L10.584,9.519L12.475,9.519L12.475,0.634L10.452,0.634L10.452,6.161L6.341,0.634L4.437,0.634L4.437,9.519L6.46,9.519ZM19.417,9.519L19.417,2.472L22.088,2.472L22.088,0.634L14.618,0.634L14.618,2.472L17.275,2.472L17.275,9.519L19.417,9.519ZM30.749,9.519L30.749,7.734L26.372,7.734L26.372,5.883L29.321,5.883L29.321,4.164L26.372,4.164L26.372,2.419L30.59,2.419L30.59,0.634L24.217,0.634L24.217,9.519L30.749,9.519ZM35.165,9.519L35.165,2.419L36.818,2.419C37.215,2.419 37.517,2.516 37.724,2.71C37.931,2.904 38.034,3.177 38.034,3.53C38.034,3.9 37.931,4.182 37.724,4.376C37.517,4.57 37.215,4.667 36.818,4.667L33.605,4.667L33.605,6.438L37.003,6.438C37.655,6.438 38.219,6.324 38.695,6.095C39.171,5.866 39.539,5.535 39.799,5.103C40.059,4.671 40.189,4.147 40.189,3.53C40.189,2.587 39.914,1.868 39.363,1.375C38.812,0.881 38.026,0.634 37.003,0.634L33.077,0.634L33.077,9.519L35.165,9.519ZM40.454,9.519L38.048,5.91L36.025,6.319L38.034,9.519L40.454,9.519ZM47.502,9.334C48.048,9.105 48.469,8.778 48.764,8.355C49.06,7.932 49.207,7.43 49.207,6.848C49.207,6.293 49.102,5.843 48.89,5.5C48.678,5.156 48.405,4.887 48.07,4.693C47.735,4.499 47.372,4.356 46.98,4.264C46.587,4.171 46.215,4.094 45.862,4.032C45.642,3.997 45.433,3.959 45.234,3.92C45.036,3.88 44.862,3.832 44.712,3.774C44.562,3.717 44.445,3.638 44.362,3.536C44.278,3.435 44.236,3.31 44.236,3.16C44.236,2.886 44.362,2.677 44.613,2.532C44.864,2.386 45.219,2.313 45.677,2.313C46.135,2.313 46.534,2.384 46.874,2.525C47.213,2.666 47.537,2.838 47.846,3.041L49.049,1.586C48.123,0.846 46.999,0.476 45.677,0.476C44.946,0.476 44.311,0.588 43.773,0.813C43.236,1.038 42.822,1.355 42.531,1.765C42.24,2.175 42.094,2.657 42.094,3.212C42.094,3.759 42.196,4.197 42.398,4.528C42.601,4.858 42.868,5.119 43.198,5.308C43.529,5.498 43.888,5.638 44.276,5.731C44.664,5.824 45.029,5.901 45.373,5.962C45.602,6.007 45.82,6.051 46.028,6.095C46.235,6.139 46.415,6.194 46.57,6.26C46.724,6.326 46.847,6.412 46.94,6.518C47.032,6.623 47.079,6.756 47.079,6.914C47.079,7.205 46.944,7.432 46.675,7.595C46.407,7.758 46.03,7.84 45.545,7.84C45.051,7.84 44.613,7.752 44.23,7.575C43.846,7.399 43.487,7.192 43.152,6.954L41.936,8.408C42.438,8.831 42.991,9.149 43.595,9.36C44.199,9.572 44.849,9.678 45.545,9.678C46.303,9.678 46.955,9.563 47.502,9.334M55.621,9.519L55.621,2.472L58.291,2.472L58.291,0.634L50.821,0.634L50.821,2.472L53.479,2.472L53.479,9.519L55.621,9.519ZM66.43,9.228C67.016,8.928 67.461,8.494 67.765,7.926C68.069,7.357 68.221,6.668 68.221,5.857L68.221,0.634L66.079,0.634L66.079,5.857C66.079,6.474 65.923,6.947 65.61,7.278C65.297,7.608 64.859,7.774 64.295,7.774C63.713,7.774 63.268,7.608 62.959,7.278C62.651,6.947 62.497,6.474 62.497,5.857L62.497,0.634L60.341,0.634L60.341,5.857C60.341,7.082 60.685,8.025 61.373,8.686C62.06,9.347 63.034,9.678 64.295,9.678C65.132,9.678 65.843,9.528 66.43,9.228M63.594,-0.298C63.788,-0.496 63.885,-0.767 63.885,-1.111C63.885,-1.455 63.788,-1.726 63.594,-1.924C63.4,-2.122 63.131,-2.221 62.787,-2.221C62.444,-2.221 62.173,-2.122 61.974,-1.924C61.776,-1.726 61.677,-1.455 61.677,-1.111C61.677,-0.767 61.776,-0.496 61.974,-0.298C62.173,-0.099 62.444,0 62.787,0C63.131,0 63.4,-0.099 63.594,-0.298M66.615,-0.298C66.813,-0.496 66.912,-0.767 66.912,-1.111C66.912,-1.455 66.813,-1.726 66.615,-1.924C66.417,-2.122 66.146,-2.221 65.802,-2.221C65.458,-2.221 65.189,-2.122 64.995,-1.924C64.801,-1.726 64.704,-1.455 64.704,-1.111C64.704,-0.767 64.801,-0.496 64.995,-0.298C65.189,-0.099 65.458,0 65.802,0C66.146,0 66.417,-0.099 66.615,-0.298M75.084,9.519L75.084,2.472L77.755,2.472L77.755,0.634L70.285,0.634L70.285,2.472L72.942,2.472L72.942,9.519L75.084,9.519ZM87.05,9.519L87.05,7.681L82.383,7.681L86.891,2.168L86.891,0.634L79.659,0.634L79.659,2.472L83.996,2.472L79.501,7.985L79.501,9.519L87.05,9.519ZM95.387,9.228C95.973,8.928 96.418,8.494 96.722,7.926C97.026,7.357 97.178,6.668 97.178,5.857L97.178,0.634L95.037,0.634L95.037,5.857C95.037,6.474 94.88,6.947 94.567,7.278C94.254,7.608 93.816,7.774 93.252,7.774C92.67,7.774 92.225,7.608 91.916,7.278C91.608,6.947 91.454,6.474 91.454,5.857L91.454,0.634L89.299,0.634L89.299,5.857C89.299,7.082 89.642,8.025 90.33,8.686C91.017,9.347 91.991,9.678 93.252,9.678C94.089,9.678 94.801,9.528 95.387,9.228M101.846,9.519L101.846,3.992L105.971,9.519L107.862,9.519L107.862,0.634L105.839,0.634L105.839,6.161L101.727,0.634L99.824,0.634L99.824,9.519L101.846,9.519ZM116.952,9.129C117.6,8.763 118.098,8.243 118.446,7.569C118.795,6.894 118.969,6.095 118.969,5.169C118.969,5.063 118.964,4.96 118.955,4.858C118.947,4.757 118.938,4.649 118.929,4.535L114.5,4.535L114.5,6.253L117.58,6.253L116.814,5.486C116.814,5.998 116.728,6.427 116.556,6.776C116.384,7.124 116.135,7.388 115.809,7.569C115.483,7.75 115.086,7.84 114.619,7.84C114.143,7.84 113.729,7.727 113.376,7.503C113.024,7.278 112.753,6.961 112.563,6.551C112.373,6.141 112.279,5.65 112.279,5.077C112.279,4.495 112.376,3.999 112.57,3.589C112.763,3.179 113.039,2.864 113.396,2.644C113.753,2.424 114.187,2.313 114.698,2.313C115.236,2.313 115.663,2.419 115.981,2.631C116.298,2.842 116.571,3.107 116.8,3.424L118.651,2.538C117.779,1.163 116.448,0.476 114.659,0.476C113.724,0.476 112.918,0.659 112.239,1.024C111.56,1.39 111.04,1.917 110.679,2.604C110.318,3.292 110.137,4.116 110.137,5.077C110.137,6.011 110.32,6.824 110.686,7.516C111.051,8.208 111.572,8.741 112.246,9.116C112.92,9.49 113.711,9.678 114.619,9.678C115.527,9.678 116.305,9.495 116.952,9.129M122.791,7.906L120.609,7.906L119.948,11.066L121.482,11.449L122.791,7.906Z" style="fill:white;fill-rule:nonzero;"/>
    </g>
</svg>
