<?xml version="1.0" encoding="UTF-8" standalone="no"?>
<!DOCTYPE svg PUBLIC "-//W3C//DTD SVG 1.1//EN" "http://www.w3.org/Graphics/SVG/1.1/DTD/svg11.dtd">
<svg width="100%" height="100%" viewBox="0 0 287 98" version="1.1" xmlns="http://www.w3.org/2000/svg" xmlns:xlink="http://www.w3.org/1999/xlink" xml:space="preserve" xmlns:serif="http://www.serif.com/" style="fill-rule:evenodd;clip-rule:evenodd;stroke-linejoin:round;stroke-miterlimit:2;">
    <g transform="matrix(1,0,0,1,24.755,1.465)">
        <path d="M0,52.679C2.402,51.702 4.264,50.303 5.585,48.481C6.904,46.659 7.565,44.507 7.565,42.025C7.565,39.648 7.102,37.721 6.179,36.242C5.254,34.764 4.04,33.641 2.535,32.875C1.03,32.11 -0.582,31.556 -2.297,31.212C-4.014,30.869 -5.664,30.565 -7.248,30.301C-8.622,30.142 -9.929,29.918 -11.169,29.627C-12.411,29.338 -13.401,28.888 -14.14,28.281C-14.88,27.674 -15.249,26.789 -15.249,25.627C-15.249,24.201 -14.603,23.092 -13.308,22.3C-12.015,21.508 -10.286,21.112 -8.12,21.112C-6.008,21.112 -4.133,21.416 -2.495,22.023C-0.859,22.63 0.673,23.436 2.099,24.439L6.615,18.973C2.812,15.804 -2.099,14.22 -8.12,14.22C-11.288,14.22 -14.048,14.695 -16.398,15.646C-18.748,16.596 -20.57,17.943 -21.864,19.686C-23.158,21.428 -23.804,23.488 -23.804,25.865C-23.804,28.136 -23.356,29.958 -22.458,31.33C-21.56,32.704 -20.398,33.774 -18.972,34.539C-17.546,35.305 -16.002,35.873 -14.338,36.242C-12.674,36.612 -11.051,36.903 -9.466,37.113C-7.935,37.378 -6.535,37.655 -5.268,37.945C-4,38.236 -2.971,38.711 -2.178,39.371C-1.386,40.032 -0.99,40.995 -0.99,42.262C-0.99,43.846 -1.664,45.074 -3.01,45.946C-4.357,46.817 -6.218,47.253 -8.595,47.253C-10.919,47.253 -13.031,46.87 -14.932,46.104C-16.833,45.339 -18.603,44.296 -20.24,42.975L-24.755,48.441C-22.59,50.342 -20.174,51.768 -17.507,52.719C-14.841,53.669 -11.87,54.144 -8.595,54.144C-5.268,54.144 -2.404,53.656 0,52.679M46.3,53.194L46.3,29.905C46.3,24.783 44.901,20.888 42.102,18.22C39.302,15.554 35.236,14.22 29.903,14.22C24.199,14.22 19.13,15.646 14.693,18.497L18.971,24.439C20.555,23.541 22.192,22.802 23.882,22.221C25.572,21.64 27.42,21.349 29.428,21.349C32.226,21.349 34.351,22.036 35.804,23.409C37.256,24.783 37.983,26.789 37.983,29.429L37.983,46.064L39.646,53.194L46.3,53.194ZM34.933,52.243C37.282,50.976 39.144,49.075 40.518,46.54L38.22,42.975C37.058,44.613 35.712,45.854 34.18,46.698C32.648,47.544 30.905,47.966 28.952,47.966C26.681,47.966 24.845,47.411 23.447,46.302C22.047,45.193 21.348,43.688 21.348,41.787C21.348,39.834 22.126,38.315 23.684,37.232C25.242,36.15 27.394,35.608 30.141,35.608C33.097,35.608 35.791,36.321 38.22,37.747L40.042,32.756C36.767,30.855 32.992,29.905 28.715,29.905C23.75,29.905 19.855,30.962 17.03,33.073C14.205,35.186 12.792,38.17 12.792,42.025C12.792,45.722 14.072,48.666 16.634,50.857C19.195,53.049 22.588,54.144 26.813,54.144C29.876,54.144 32.583,53.511 34.933,52.243M64.836,53.194L64.836,22.775L62.935,15.17L56.281,15.17L56.281,53.194L64.836,53.194ZM90.977,53.194L90.977,28.954C90.977,24.359 89.696,20.755 87.135,18.141C84.573,15.527 81.022,14.22 76.481,14.22C69.827,14.22 64.967,17.072 61.905,22.775L64.599,27.053C67.239,23.567 70.566,21.825 74.58,21.825C77.061,21.825 78.989,22.511 80.363,23.884C81.735,25.258 82.422,27.185 82.422,29.667L82.422,53.194L90.977,53.194ZM109.513,15.17L100.958,15.17L100.958,53.193L109.513,53.193L109.513,15.17ZM109.078,7.605C110.001,6.682 110.464,5.401 110.464,3.763C110.464,2.127 110.001,0.846 109.078,-0.079C108.153,-1.002 106.872,-1.465 105.236,-1.465C103.598,-1.465 102.317,-1.002 101.394,-0.079C100.469,0.846 100.008,2.127 100.008,3.763C100.008,5.401 100.469,6.682 101.394,7.605C102.317,8.53 103.598,8.992 105.236,8.992C106.872,8.992 108.153,8.53 109.078,7.605" style="fill-rule:nonzero;"/>
    </g>
    <g transform="matrix(1,0,0,1,8.1056,60.7269)">
        <path d="M0,14.372C0.7,14.078 1.24,13.66 1.619,13.118C1.997,12.576 2.186,11.931 2.186,11.186C2.186,10.474 2.051,9.898 1.78,9.457C1.508,9.016 1.158,8.672 0.729,8.423C0.299,8.175 -0.167,7.991 -0.669,7.872C-1.172,7.754 -1.65,7.655 -2.102,7.576C-2.384,7.531 -2.652,7.483 -2.907,7.432C-3.161,7.381 -3.384,7.319 -3.576,7.245C-3.768,7.172 -3.918,7.07 -4.025,6.94C-4.133,6.81 -4.186,6.649 -4.186,6.457C-4.186,6.107 -4.025,5.839 -3.703,5.652C-3.381,5.466 -2.926,5.373 -2.339,5.373C-1.751,5.373 -1.24,5.463 -0.805,5.644C-0.37,5.825 0.045,6.045 0.441,6.305L1.983,4.44C0.797,3.491 -0.644,3.017 -2.339,3.017C-3.277,3.017 -4.09,3.161 -4.779,3.449C-5.469,3.737 -6,4.144 -6.372,4.669C-6.745,5.195 -6.932,5.813 -6.932,6.525C-6.932,7.226 -6.802,7.788 -6.542,8.211C-6.282,8.635 -5.94,8.968 -5.517,9.211C-5.093,9.454 -4.633,9.635 -4.135,9.754C-3.638,9.872 -3.169,9.971 -2.729,10.05C-2.435,10.107 -2.155,10.163 -1.89,10.22C-1.624,10.276 -1.393,10.347 -1.195,10.432C-0.997,10.516 -0.839,10.626 -0.72,10.762C-0.602,10.898 -0.542,11.067 -0.542,11.27C-0.542,11.643 -0.715,11.934 -1.059,12.143C-1.404,12.353 -1.887,12.457 -2.508,12.457C-3.141,12.457 -3.703,12.344 -4.195,12.118C-4.686,11.892 -5.147,11.626 -5.576,11.321L-7.135,13.186C-6.491,13.728 -5.782,14.135 -5.008,14.406C-4.234,14.677 -3.401,14.813 -2.508,14.813C-1.537,14.813 -0.701,14.666 0,14.372M6.279,14.609L9.448,6.169L12.634,14.609L15.482,14.609L10.838,3.22L8.075,3.22L3.432,14.609L6.279,14.609ZM12.363,10.101L6.567,10.101L6.567,12.304L12.363,12.304L12.363,10.101ZM19.998,14.609L19.998,7.525L25.286,14.609L27.709,14.609L27.709,3.22L25.116,3.22L25.116,10.304L19.845,3.22L17.405,3.22L17.405,14.609L19.998,14.609ZM33.412,3.22L30.649,3.22L30.649,14.609L33.412,14.609L33.412,3.22ZM41.758,14.609L41.758,5.576L45.182,5.576L45.182,3.22L35.606,3.22L35.606,5.576L39.013,5.576L39.013,14.609L41.758,14.609ZM47.359,14.609L50.529,6.169L53.715,14.609L56.562,14.609L51.919,3.22L49.156,3.22L44.512,14.609L47.359,14.609ZM53.444,10.101L47.648,10.101L47.648,12.304L53.444,12.304L53.444,10.101ZM49.631,2.025C49.879,1.771 50.003,1.424 50.003,0.983C50.003,0.542 49.879,0.195 49.631,-0.059C49.382,-0.314 49.037,-0.441 48.597,-0.441C48.156,-0.441 47.809,-0.314 47.554,-0.059C47.3,0.195 47.173,0.542 47.173,0.983C47.173,1.424 47.3,1.771 47.554,2.025C47.809,2.28 48.156,2.407 48.597,2.407C49.037,2.407 49.382,2.28 49.631,2.025M53.503,2.025C53.757,1.771 53.884,1.424 53.884,0.983C53.884,0.542 53.757,0.195 53.503,-0.059C53.249,-0.314 52.901,-0.441 52.461,-0.441C52.02,-0.441 51.675,-0.314 51.427,-0.059C51.178,0.195 51.054,0.542 51.054,0.983C51.054,1.424 51.178,1.771 51.427,2.025C51.675,2.28 52.02,2.407 52.461,2.407C52.901,2.407 53.249,2.28 53.503,2.025M62.062,14.609L62.062,5.576L65.485,5.576L65.485,3.22L55.91,3.22L55.91,5.576L59.316,5.576L59.316,14.609L62.062,14.609ZM74.018,14.372C74.719,14.078 75.258,13.66 75.637,13.118C76.015,12.576 76.204,11.931 76.204,11.186C76.204,10.474 76.069,9.898 75.798,9.457C75.526,9.016 75.176,8.672 74.747,8.423C74.317,8.175 73.851,7.991 73.349,7.872C72.846,7.754 72.368,7.655 71.917,7.576C71.634,7.531 71.366,7.483 71.111,7.432C70.857,7.381 70.634,7.319 70.442,7.245C70.25,7.172 70.1,7.07 69.993,6.94C69.885,6.81 69.832,6.649 69.832,6.457C69.832,6.107 69.993,5.839 70.315,5.652C70.637,5.466 71.092,5.373 71.679,5.373C72.267,5.373 72.778,5.463 73.213,5.644C73.648,5.825 74.063,6.045 74.459,6.305L76.001,4.44C74.815,3.491 73.374,3.017 71.679,3.017C70.741,3.017 69.928,3.161 69.239,3.449C68.549,3.737 68.018,4.144 67.646,4.669C67.273,5.195 67.086,5.813 67.086,6.525C67.086,7.226 67.216,7.788 67.476,8.211C67.736,8.635 68.078,8.968 68.501,9.211C68.925,9.454 69.385,9.635 69.883,9.754C70.38,9.872 70.849,9.971 71.289,10.05C71.583,10.107 71.863,10.163 72.128,10.22C72.394,10.276 72.625,10.347 72.823,10.432C73.021,10.516 73.179,10.626 73.298,10.762C73.416,10.898 73.476,11.067 73.476,11.27C73.476,11.643 73.303,11.934 72.959,12.143C72.614,12.353 72.131,12.457 71.51,12.457C70.877,12.457 70.315,12.344 69.823,12.118C69.332,11.892 68.871,11.626 68.442,11.321L66.883,13.186C67.527,13.728 68.236,14.135 69.01,14.406C69.784,14.677 70.617,14.813 71.51,14.813C72.481,14.813 73.317,14.666 74.018,14.372M81.229,3.22L78.466,3.22L78.466,14.609L81.229,14.609L81.229,3.22ZM88.568,3.22L85.822,3.22L85.822,14.609L88.568,14.609L88.568,3.22ZM86.669,7.576L80.398,7.576L80.398,9.949L86.669,9.949L86.669,7.576ZM93.338,14.609L96.507,6.169L99.694,14.609L102.541,14.609L97.897,3.22L95.135,3.22L90.491,14.609L93.338,14.609ZM99.422,10.101L93.626,10.101L93.626,12.304L99.422,12.304L99.422,10.101ZM111.862,14.236C112.613,13.852 113.184,13.296 113.574,12.567C113.964,11.838 114.159,10.954 114.159,9.915L114.159,3.22L111.413,3.22L111.413,9.915C111.413,10.706 111.212,11.313 110.811,11.737C110.41,12.16 109.848,12.372 109.125,12.372C108.379,12.372 107.809,12.16 107.413,11.737C107.018,11.313 106.82,10.706 106.82,9.915L106.82,3.22L104.058,3.22L104.058,9.915C104.058,11.485 104.498,12.694 105.379,13.542C106.261,14.389 107.509,14.813 109.125,14.813C110.198,14.813 111.111,14.62 111.862,14.236M123.352,14.372C124.053,14.078 124.592,13.66 124.971,13.118C125.349,12.576 125.539,11.931 125.539,11.186C125.539,10.474 125.403,9.898 125.132,9.457C124.861,9.016 124.51,8.672 124.081,8.423C123.652,8.175 123.186,7.991 122.683,7.872C122.18,7.754 121.703,7.655 121.251,7.576C120.968,7.531 120.7,7.483 120.446,7.432C120.192,7.381 119.968,7.319 119.776,7.245C119.584,7.172 119.434,7.07 119.327,6.94C119.22,6.81 119.166,6.649 119.166,6.457C119.166,6.107 119.327,5.839 119.649,5.652C119.971,5.466 120.426,5.373 121.014,5.373C121.601,5.373 122.112,5.463 122.547,5.644C122.982,5.825 123.397,6.045 123.793,6.305L125.335,4.44C124.149,3.491 122.708,3.017 121.014,3.017C120.076,3.017 119.262,3.161 118.573,3.449C117.884,3.737 117.353,4.144 116.98,4.669C116.607,5.195 116.421,5.813 116.421,6.525C116.421,7.226 116.55,7.788 116.81,8.211C117.07,8.635 117.412,8.968 117.836,9.211C118.26,9.454 118.72,9.635 119.217,9.754C119.714,9.872 120.183,9.971 120.624,10.05C120.917,10.107 121.197,10.163 121.463,10.22C121.728,10.276 121.96,10.347 122.158,10.432C122.355,10.516 122.513,10.626 122.632,10.762C122.751,10.898 122.81,11.067 122.81,11.27C122.81,11.643 122.638,11.934 122.293,12.143C121.948,12.353 121.465,12.457 120.844,12.457C120.211,12.457 119.649,12.344 119.158,12.118C118.666,11.892 118.206,11.626 117.776,11.321L116.217,13.186C116.861,13.728 117.57,14.135 118.344,14.406C119.118,14.677 119.951,14.813 120.844,14.813C121.816,14.813 122.652,14.666 123.352,14.372" style="fill:rgb(87,87,87);fill-rule:nonzero;"/>
    </g>
    <g transform="matrix(1,0,0,1,286.334,88.144)">
        <path d="M0,-70.942C-0.234,-72.301 -0.433,-78.916 -7.401,-80.669C-11.809,-81.624 -17.497,-81.004 -21.56,-75.937C-25.142,-72.747 -27.785,-70.236 -29.935,-67.98C-29.441,-69.454 -29.078,-70.627 -29.056,-70.978C-29.056,-70.978 -28.615,-73.057 -29.567,-74.854C-30.307,-76.44 -31.575,-77.92 -33.373,-78.343C-36.862,-79.295 -38.554,-76.44 -38.342,-73.691C-38.342,-73.268 -38.561,-71.989 -38.667,-71.566C-39.407,-69.346 -39.717,-66.396 -40.562,-64.281C-40.685,-63.945 -41.102,-62.778 -41.629,-61.3L-42.014,-60.435C-42.395,-60.045 -42.725,-59.662 -42.928,-59.369C-44.725,-56.938 -48.96,-52.038 -50.863,-49.818C-52.449,-47.915 -59.641,-39.782 -60.698,-38.831C-62.284,-37.35 -71.012,-28.967 -72.175,-34.36C-72.809,-37.003 -70.956,-48.054 -70.427,-49.112C-70.11,-49.746 -70.004,-49.64 -69.264,-49.852L-67.467,-50.486C-66.304,-50.909 -65.141,-51.332 -64.084,-51.966C-62.497,-52.918 -60.312,-54.743 -58.937,-55.906C-55.66,-58.655 -52.615,-62.167 -51.24,-66.29C-50.5,-68.616 -50.394,-71.153 -51.874,-73.162C-53.249,-74.96 -55.575,-75.911 -57.69,-76.334C-63.399,-77.392 -67.734,-74.114 -71.012,-69.779C-73.513,-66.685 -75.534,-63.129 -77.056,-59.388L-77.103,-59.342C-77.142,-59.322 -77.182,-59.303 -77.22,-59.279C-78.884,-58.692 -90.149,-51.911 -92.263,-50.748C-90.36,-54.025 -88.563,-57.514 -87.4,-61.003C-86.977,-62.272 -85.366,-67.687 -86.131,-70.942C-86.365,-72.301 -86.564,-78.916 -93.532,-80.669C-97.94,-81.624 -103.357,-81.004 -107.691,-75.937C-111.612,-72.445 -114.414,-69.764 -116.667,-67.343L-116.689,-67.356C-116.233,-68.519 -115.96,-69.215 -115.96,-69.215C-115.262,-70.932 -114.784,-73.057 -115.735,-74.854C-116.476,-76.44 -117.87,-77.797 -119.542,-78.343C-121.838,-79.325 -124.336,-77.385 -124.511,-73.691C-124.511,-73.268 -124.571,-72.459 -124.571,-72.036C-124.571,-71.508 -124.745,-70.461 -124.85,-70.038C-125.591,-67.817 -125.886,-66.396 -126.731,-64.281C-126.796,-64.104 -126.947,-63.683 -127.148,-63.12C-127.472,-62.348 -128.154,-60.964 -129.517,-58.971C-129.543,-58.934 -129.554,-58.905 -129.578,-58.869C-132.941,-54.201 -137.621,-47.778 -140.203,-45.819C-143.18,-42.701 -145.306,-41.425 -146.439,-41.284C-147.999,-41 -148.225,-40.802 -148.339,-40.15C-148.339,-39.611 -148.048,-39.03 -147.658,-38.591C-146.525,-37.032 -144.124,-37.551 -143.436,-37.637C-139.976,-38.428 -135.689,-44.009 -133.418,-47.064C-133.407,-47.092 -133.397,-47.116 -133.386,-47.144L-133.366,-47.134C-133.384,-47.109 -133.4,-47.089 -133.418,-47.064C-134.393,-44.564 -135.389,-41.598 -135.507,-41.126C-135.93,-39.118 -142.697,-17.231 -143.225,-13.636C-144.071,-8.138 -146.608,0.108 -143.859,5.183C-142.908,6.981 -139.948,10.682 -137.621,8.461C-136.564,7.403 -136.564,4.972 -136.459,3.703C-135.824,0.214 -135.296,-3.381 -134.555,-6.87L-133.604,-11.733C-133.498,-11.945 -132.229,-18.183 -131.595,-19.981C-130.749,-22.518 -129.105,-33.05 -124.213,-42.758C-121.251,-50.114 -120.487,-50.724 -118.796,-53.05C-110.941,-63.884 -110.495,-64.418 -109.587,-65.509C-104.711,-70.655 -99.023,-73.905 -95.329,-71.894C-93.065,-70.114 -93.849,-67.876 -94.166,-66.713C-94.695,-64.281 -96.07,-61.955 -97.233,-59.84C-97.867,-58.677 -98.501,-57.62 -99.03,-56.457C-99.136,-56.351 -102.519,-50.325 -103.365,-49.479C-105.585,-46.941 -107.594,-44.298 -109.815,-41.866C-111.506,-40.069 -113.727,-36.897 -116.264,-36.263C-118.062,-35.84 -119.436,-36.791 -118.484,-33.937C-117.85,-31.928 -115.524,-27.276 -112.986,-27.276C-110.66,-27.276 -107.806,-30.765 -106.431,-32.245C-104.845,-34.042 -103.048,-35.734 -101.356,-37.637C-101.056,-38.088 -98.518,-41.147 -96.806,-42.998C-96.813,-42.996 -96.817,-42.994 -96.824,-42.992C-96.806,-43.006 -96.793,-43.016 -96.776,-43.03C-96.787,-43.018 -96.795,-43.01 -96.806,-42.998C-95.06,-43.571 -92.206,-44.49 -89.453,-46.285C-88.776,-46.672 -81.498,-51.187 -79.12,-53.011L-79.116,-53.009C-79.162,-52.818 -79.217,-52.63 -79.259,-52.439C-79.999,-49.373 -80.422,-46.307 -80.95,-43.135C-81.479,-39.963 -81.796,-37.003 -80.105,-34.042C-79.87,-33.596 -79.364,-32.879 -78.836,-32.245C-77.038,-30.131 -74.606,-28.439 -71.858,-27.699C-69.954,-27.17 -67.777,-27.316 -65.979,-28.268C-63.442,-29.642 -62.601,-30.321 -60.698,-32.33C-58.9,-34.339 -56.461,-36.445 -54.875,-38.56C-53.639,-40.148 -49.191,-45.571 -46.888,-48.435L-46.987,-48.141C-48.064,-45.507 -49.202,-41.669 -49.338,-41.126C-49.516,-40.281 -49.727,-39.458 -49.95,-38.634C-51.174,-34.918 -52.52,-30.821 -53.802,-26.895C-54.412,-25.028 -54.858,-23.45 -55.192,-22.118C-56.078,-19.361 -56.64,-16.469 -57.056,-13.636C-57.902,-8.138 -60.44,0.108 -57.691,5.183C-56.739,6.981 -53.779,10.682 -51.453,8.461C-50.395,7.403 -50.395,4.972 -50.29,3.703C-49.655,0.214 -49.127,-3.381 -48.386,-6.87L-47.435,-11.733C-47.329,-11.945 -46.06,-18.183 -45.426,-19.981C-45.19,-20.69 -44.968,-21.389 -44.746,-22.082L-44.754,-22.165L-38.799,-41.222C-38.56,-41.735 -38.338,-42.249 -38.082,-42.758C-35.12,-50.114 -34.357,-50.724 -32.665,-53.05C-24.81,-63.884 -24.365,-64.418 -23.456,-65.509C-18.581,-70.655 -12.893,-73.905 -9.199,-71.894C-6.934,-70.114 -7.718,-67.876 -8.036,-66.713C-8.564,-64.281 -9.939,-61.955 -11.102,-59.84C-11.548,-59.022 -11.981,-58.246 -12.391,-57.459C-13.358,-55.739 -14.648,-53.478 -15.67,-51.785C-16.335,-50.701 -16.939,-49.773 -17.234,-49.479C-17.939,-48.673 -18.607,-47.853 -19.283,-47.036L-19.22,-47.065C-20.681,-45.299 -22.122,-43.535 -23.646,-41.866C-25.337,-40.069 -27.558,-36.897 -30.095,-36.263C-31.892,-35.84 -33.267,-36.791 -32.315,-33.937C-31.681,-31.928 -29.355,-27.276 -26.817,-27.276C-24.491,-27.276 -21.637,-30.765 -20.262,-32.245C-18.676,-34.042 -16.879,-35.734 -15.187,-37.637C-10.306,-43.551 -8.605,-46.669 -5.715,-51.56C-4.12,-54.307 -3.002,-56.392 -1.867,-59.311L-1.918,-59.312C-1.697,-59.875 -1.457,-60.438 -1.269,-61.003C-0.846,-62.272 0.765,-67.687 0,-70.942M-68.474,-54.871C-67.946,-56.034 -67.628,-57.197 -67.1,-58.254C-66.994,-58.466 -66.994,-58.571 -66.994,-58.571C-65.408,-61.955 -64.245,-65.55 -62.025,-68.827L-60.121,-71.365C-59.699,-71.894 -58.958,-72.845 -58.218,-73.057C-56.632,-73.374 -56.192,-70.971 -56.298,-69.913C-56.298,-69.913 -56.153,-68.995 -56.623,-66.746C-56.835,-66.112 -57.478,-64.81 -57.796,-64.281L-59.593,-61.955C-62.025,-59.1 -65.091,-56.669 -68.474,-54.871" style="fill-rule:nonzero;"/>
    </g>
</svg>
